<svg xmlns="http://www.w3.org/2000/svg" viewBox="0 0 1609 1015.77"><defs><style>.cls-1{fill:#0084ff;}.cls-2{fill:#fff;}</style></defs><title>Logo</title><g id="Layer_2" data-name="Layer 2"><g id="Layer_1-2" data-name="Layer 1"><path class="cls-1" d="M1609,177.16V838.6a177.17,177.17,0,0,1-177.16,177.17H459.19A177.17,177.17,0,0,1,282,838.6V381.44A177.19,177.19,0,0,0,236.57,263L0,0H1431.84A177.16,177.16,0,0,1,1609,177.16Z"/><path class="cls-2" d="M820.8,123.15C578.46,123.15,382,319.62,382,562c0,142.54,68,269.21,173.27,349.36l94.24-163.23A252.28,252.28,0,0,1,567.85,562c0-139.71,113.25-253,252.95-253a252.63,252.63,0,0,1,75.58,11.49l94.26-163.26A437.4,437.4,0,0,0,820.8,123.15Z"/><path class="cls-2" d="M1091.6,123.15l-454.93,788h214.6l170.44-295.19h275.44V911.12h95.14A90.71,90.71,0,0,0,1483,820.41V213.87a90.72,90.72,0,0,0-90.71-90.72Zm205.55,306.93H1129L1198.91,309h98.24Z"/></g></g></svg>